<?xml version="1.0" encoding="utf-8"?>
<svg data-v-fde0c5aa="" xmlns="http://www.w3.org/2000/svg" viewBox="0 0 300 300" class="iconLeftSlogan">
  <rect data-v-fde0c5aa="" width="300" height="300" class="logo-background-square" style="stroke-width: 0px;" rx="37.108" ry="37.108" y="0.001"/>
  <defs data-v-fde0c5aa="">
    <linearGradient data-v-fde0c5aa="" gradientTransform="rotate(25)" id="6a11ba33-aa0b-4f40-8f33-55a523a1fd08" x1="0%" y1="0%" x2="100%" y2="0%">
      <stop data-v-fde0c5aa="" offset="0" stop-color="#8E42D3" stop-opacity="1"/>
      <stop data-v-fde0c5aa="" offset="1" stop-color="#D46975" stop-opacity="1"/>
    </linearGradient>
  </defs>
  <g data-v-fde0c5aa="" id="7dade963-ee69-4441-93e5-0b2dcf84aa63" stroke="none" fill="url(#6a11ba33-aa0b-4f40-8f33-55a523a1fd08)" transform="matrix(3.167117, 0, 0, 3.173053, 70.822067, 45.290596)" style="">
    <path d="M26 31.899V52a5 5 0 0 0 5 5h3.062A8.001 8.001 0 0 1 50 58a8 8 0 0 1-15.938 1H31a7 7 0 0 1-7-7V14a5 5 0 0 0-5-5h-3.062A8.001 8.001 0 0 1 0 8a8 8 0 0 1 15.938-1H19a7 7 0 0 1 7 7v13a5 5 0 0 0 5 5h3.062A8.001 8.001 0 0 1 50 33a8 8 0 0 1-15.938 1H31a6.98 6.98 0 0 1-5-2.101M8 14A6 6 0 1 0 8 2a6 6 0 0 0 0 12m34 50a6 6 0 1 0 0-12 6 6 0 0 0 0 12m0-25a6 6 0 1 0 0-12 6 6 0 0 0 0 12"/>
  </g>
</svg>